<?xml version="1.0" encoding="utf-8" standalone="no"?>
<!DOCTYPE svg PUBLIC "-//W3C//DTD SVG 1.1//EN"
  "http://www.w3.org/Graphics/SVG/1.1/DTD/svg11.dtd">
<!-- Created with matplotlib (http://matplotlib.org/) -->
<svg height="425.52pt" version="1.1" viewBox="0 0 1010.88 425.52" width="1010.88pt" xmlns="http://www.w3.org/2000/svg" xmlns:xlink="http://www.w3.org/1999/xlink">
 <defs>
  <style type="text/css">
*{stroke-linecap:butt;stroke-linejoin:round;}
  </style>
 </defs>
 <g id="figure_1">
  <g id="patch_1">
   <path d="M 0 425.52 
L 1010.88 425.52 
L 1010.88 0 
L 0 0 
z
" style="fill:#ffffff;"/>
  </g>
  <g id="axes_1">
   <g id="patch_2">
    <path d="M 49.39 397.64 
L 997.56 397.64 
L 997.56 13.32 
L 49.39 13.32 
z
" style="fill:#ffffff;"/>
   </g>
   <g id="matplotlib.axis_1">
    <g id="xtick_1">
     <g id="line2d_1">
      <path clip-path="url(#pefd6b3e948)" d="M 191.624995 397.64 
L 191.624995 13.32 
" style="fill:none;stroke:#808080;stroke-linecap:square;stroke-width:0.8;"/>
     </g>
     <g id="line2d_2">
      <defs>
       <path d="M 0 0 
L 0 3.5 
" id="m027f6ec627" style="stroke:#000000;stroke-width:0.8;"/>
      </defs>
      <g>
       <use style="stroke:#000000;stroke-width:0.8;" x="191.624995" xlink:href="#m027f6ec627" y="397.64"/>
      </g>
     </g>
     <g id="text_1">
      <!-- 115.4 -->
      <defs>
       <path d="M 12.40625 8.296875 
L 28.515625 8.296875 
L 28.515625 63.921875 
L 10.984375 60.40625 
L 10.984375 69.390625 
L 28.421875 72.90625 
L 38.28125 72.90625 
L 38.28125 8.296875 
L 54.390625 8.296875 
L 54.390625 0 
L 12.40625 0 
z
" id="DejaVuSans-31"/>
       <path d="M 10.796875 72.90625 
L 49.515625 72.90625 
L 49.515625 64.59375 
L 19.828125 64.59375 
L 19.828125 46.734375 
Q 21.96875 47.46875 24.109375 47.828125 
Q 26.265625 48.1875 28.421875 48.1875 
Q 40.625 48.1875 47.75 41.5 
Q 54.890625 34.8125 54.890625 23.390625 
Q 54.890625 11.625 47.5625 5.09375 
Q 40.234375 -1.421875 26.90625 -1.421875 
Q 22.3125 -1.421875 17.546875 -0.640625 
Q 12.796875 0.140625 7.71875 1.703125 
L 7.71875 11.625 
Q 12.109375 9.234375 16.796875 8.0625 
Q 21.484375 6.890625 26.703125 6.890625 
Q 35.15625 6.890625 40.078125 11.328125 
Q 45.015625 15.765625 45.015625 23.390625 
Q 45.015625 31 40.078125 35.4375 
Q 35.15625 39.890625 26.703125 39.890625 
Q 22.75 39.890625 18.8125 39.015625 
Q 14.890625 38.140625 10.796875 36.28125 
z
" id="DejaVuSans-35"/>
       <path d="M 10.6875 12.40625 
L 21 12.40625 
L 21 0 
L 10.6875 0 
z
" id="DejaVuSans-2e"/>
       <path d="M 37.796875 64.3125 
L 12.890625 25.390625 
L 37.796875 25.390625 
z
M 35.203125 72.90625 
L 47.609375 72.90625 
L 47.609375 25.390625 
L 58.015625 25.390625 
L 58.015625 17.1875 
L 47.609375 17.1875 
L 47.609375 0 
L 37.796875 0 
L 37.796875 17.1875 
L 4.890625 17.1875 
L 4.890625 26.703125 
z
" id="DejaVuSans-34"/>
      </defs>
      <g transform="translate(177.310932 412.238437)scale(0.1 -0.1)">
       <use xlink:href="#DejaVuSans-31"/>
       <use x="63.623047" xlink:href="#DejaVuSans-31"/>
       <use x="127.246094" xlink:href="#DejaVuSans-35"/>
       <use x="190.869141" xlink:href="#DejaVuSans-2e"/>
       <use x="222.65625" xlink:href="#DejaVuSans-34"/>
      </g>
     </g>
    </g>
    <g id="xtick_2">
     <g id="line2d_3">
      <path clip-path="url(#pefd6b3e948)" d="M 381.258995 397.64 
L 381.258995 13.32 
" style="fill:none;stroke:#808080;stroke-linecap:square;stroke-width:0.8;"/>
     </g>
     <g id="line2d_4">
      <g>
       <use style="stroke:#000000;stroke-width:0.8;" x="381.258995" xlink:href="#m027f6ec627" y="397.64"/>
      </g>
     </g>
     <g id="text_2">
      <!-- 115.6 -->
      <defs>
       <path d="M 33.015625 40.375 
Q 26.375 40.375 22.484375 35.828125 
Q 18.609375 31.296875 18.609375 23.390625 
Q 18.609375 15.53125 22.484375 10.953125 
Q 26.375 6.390625 33.015625 6.390625 
Q 39.65625 6.390625 43.53125 10.953125 
Q 47.40625 15.53125 47.40625 23.390625 
Q 47.40625 31.296875 43.53125 35.828125 
Q 39.65625 40.375 33.015625 40.375 
z
M 52.59375 71.296875 
L 52.59375 62.3125 
Q 48.875 64.0625 45.09375 64.984375 
Q 41.3125 65.921875 37.59375 65.921875 
Q 27.828125 65.921875 22.671875 59.328125 
Q 17.53125 52.734375 16.796875 39.40625 
Q 19.671875 43.65625 24.015625 45.921875 
Q 28.375 48.1875 33.59375 48.1875 
Q 44.578125 48.1875 50.953125 41.515625 
Q 57.328125 34.859375 57.328125 23.390625 
Q 57.328125 12.15625 50.6875 5.359375 
Q 44.046875 -1.421875 33.015625 -1.421875 
Q 20.359375 -1.421875 13.671875 8.265625 
Q 6.984375 17.96875 6.984375 36.375 
Q 6.984375 53.65625 15.1875 63.9375 
Q 23.390625 74.21875 37.203125 74.21875 
Q 40.921875 74.21875 44.703125 73.484375 
Q 48.484375 72.75 52.59375 71.296875 
z
" id="DejaVuSans-36"/>
      </defs>
      <g transform="translate(366.944932 412.238437)scale(0.1 -0.1)">
       <use xlink:href="#DejaVuSans-31"/>
       <use x="63.623047" xlink:href="#DejaVuSans-31"/>
       <use x="127.246094" xlink:href="#DejaVuSans-35"/>
       <use x="190.869141" xlink:href="#DejaVuSans-2e"/>
       <use x="222.65625" xlink:href="#DejaVuSans-36"/>
      </g>
     </g>
    </g>
    <g id="xtick_3">
     <g id="line2d_5">
      <path clip-path="url(#pefd6b3e948)" d="M 570.892995 397.64 
L 570.892995 13.32 
" style="fill:none;stroke:#808080;stroke-linecap:square;stroke-width:0.8;"/>
     </g>
     <g id="line2d_6">
      <g>
       <use style="stroke:#000000;stroke-width:0.8;" x="570.892995" xlink:href="#m027f6ec627" y="397.64"/>
      </g>
     </g>
     <g id="text_3">
      <!-- 115.8 -->
      <defs>
       <path d="M 31.78125 34.625 
Q 24.75 34.625 20.71875 30.859375 
Q 16.703125 27.09375 16.703125 20.515625 
Q 16.703125 13.921875 20.71875 10.15625 
Q 24.75 6.390625 31.78125 6.390625 
Q 38.8125 6.390625 42.859375 10.171875 
Q 46.921875 13.96875 46.921875 20.515625 
Q 46.921875 27.09375 42.890625 30.859375 
Q 38.875 34.625 31.78125 34.625 
z
M 21.921875 38.8125 
Q 15.578125 40.375 12.03125 44.71875 
Q 8.5 49.078125 8.5 55.328125 
Q 8.5 64.0625 14.71875 69.140625 
Q 20.953125 74.21875 31.78125 74.21875 
Q 42.671875 74.21875 48.875 69.140625 
Q 55.078125 64.0625 55.078125 55.328125 
Q 55.078125 49.078125 51.53125 44.71875 
Q 48 40.375 41.703125 38.8125 
Q 48.828125 37.15625 52.796875 32.3125 
Q 56.78125 27.484375 56.78125 20.515625 
Q 56.78125 9.90625 50.3125 4.234375 
Q 43.84375 -1.421875 31.78125 -1.421875 
Q 19.734375 -1.421875 13.25 4.234375 
Q 6.78125 9.90625 6.78125 20.515625 
Q 6.78125 27.484375 10.78125 32.3125 
Q 14.796875 37.15625 21.921875 38.8125 
z
M 18.3125 54.390625 
Q 18.3125 48.734375 21.84375 45.5625 
Q 25.390625 42.390625 31.78125 42.390625 
Q 38.140625 42.390625 41.71875 45.5625 
Q 45.3125 48.734375 45.3125 54.390625 
Q 45.3125 60.0625 41.71875 63.234375 
Q 38.140625 66.40625 31.78125 66.40625 
Q 25.390625 66.40625 21.84375 63.234375 
Q 18.3125 60.0625 18.3125 54.390625 
z
" id="DejaVuSans-38"/>
      </defs>
      <g transform="translate(556.578932 412.238437)scale(0.1 -0.1)">
       <use xlink:href="#DejaVuSans-31"/>
       <use x="63.623047" xlink:href="#DejaVuSans-31"/>
       <use x="127.246094" xlink:href="#DejaVuSans-35"/>
       <use x="190.869141" xlink:href="#DejaVuSans-2e"/>
       <use x="222.65625" xlink:href="#DejaVuSans-38"/>
      </g>
     </g>
    </g>
    <g id="xtick_4">
     <g id="line2d_7">
      <path clip-path="url(#pefd6b3e948)" d="M 760.526995 397.64 
L 760.526995 13.32 
" style="fill:none;stroke:#808080;stroke-linecap:square;stroke-width:0.8;"/>
     </g>
     <g id="line2d_8">
      <g>
       <use style="stroke:#000000;stroke-width:0.8;" x="760.526995" xlink:href="#m027f6ec627" y="397.64"/>
      </g>
     </g>
     <g id="text_4">
      <!-- 116.0 -->
      <defs>
       <path d="M 31.78125 66.40625 
Q 24.171875 66.40625 20.328125 58.90625 
Q 16.5 51.421875 16.5 36.375 
Q 16.5 21.390625 20.328125 13.890625 
Q 24.171875 6.390625 31.78125 6.390625 
Q 39.453125 6.390625 43.28125 13.890625 
Q 47.125 21.390625 47.125 36.375 
Q 47.125 51.421875 43.28125 58.90625 
Q 39.453125 66.40625 31.78125 66.40625 
z
M 31.78125 74.21875 
Q 44.046875 74.21875 50.515625 64.515625 
Q 56.984375 54.828125 56.984375 36.375 
Q 56.984375 17.96875 50.515625 8.265625 
Q 44.046875 -1.421875 31.78125 -1.421875 
Q 19.53125 -1.421875 13.0625 8.265625 
Q 6.59375 17.96875 6.59375 36.375 
Q 6.59375 54.828125 13.0625 64.515625 
Q 19.53125 74.21875 31.78125 74.21875 
z
" id="DejaVuSans-30"/>
      </defs>
      <g transform="translate(746.212932 412.238437)scale(0.1 -0.1)">
       <use xlink:href="#DejaVuSans-31"/>
       <use x="63.623047" xlink:href="#DejaVuSans-31"/>
       <use x="127.246094" xlink:href="#DejaVuSans-36"/>
       <use x="190.869141" xlink:href="#DejaVuSans-2e"/>
       <use x="222.65625" xlink:href="#DejaVuSans-30"/>
      </g>
     </g>
    </g>
    <g id="xtick_5">
     <g id="line2d_9">
      <path clip-path="url(#pefd6b3e948)" d="M 950.160995 397.64 
L 950.160995 13.32 
" style="fill:none;stroke:#808080;stroke-linecap:square;stroke-width:0.8;"/>
     </g>
     <g id="line2d_10">
      <g>
       <use style="stroke:#000000;stroke-width:0.8;" x="950.160995" xlink:href="#m027f6ec627" y="397.64"/>
      </g>
     </g>
     <g id="text_5">
      <!-- 116.2 -->
      <defs>
       <path d="M 19.1875 8.296875 
L 53.609375 8.296875 
L 53.609375 0 
L 7.328125 0 
L 7.328125 8.296875 
Q 12.9375 14.109375 22.625 23.890625 
Q 32.328125 33.6875 34.8125 36.53125 
Q 39.546875 41.84375 41.421875 45.53125 
Q 43.3125 49.21875 43.3125 52.78125 
Q 43.3125 58.59375 39.234375 62.25 
Q 35.15625 65.921875 28.609375 65.921875 
Q 23.96875 65.921875 18.8125 64.3125 
Q 13.671875 62.703125 7.8125 59.421875 
L 7.8125 69.390625 
Q 13.765625 71.78125 18.9375 73 
Q 24.125 74.21875 28.421875 74.21875 
Q 39.75 74.21875 46.484375 68.546875 
Q 53.21875 62.890625 53.21875 53.421875 
Q 53.21875 48.921875 51.53125 44.890625 
Q 49.859375 40.875 45.40625 35.40625 
Q 44.1875 33.984375 37.640625 27.21875 
Q 31.109375 20.453125 19.1875 8.296875 
z
" id="DejaVuSans-32"/>
      </defs>
      <g transform="translate(935.846932 412.238437)scale(0.1 -0.1)">
       <use xlink:href="#DejaVuSans-31"/>
       <use x="63.623047" xlink:href="#DejaVuSans-31"/>
       <use x="127.246094" xlink:href="#DejaVuSans-36"/>
       <use x="190.869141" xlink:href="#DejaVuSans-2e"/>
       <use x="222.65625" xlink:href="#DejaVuSans-32"/>
      </g>
     </g>
    </g>
   </g>
   <g id="matplotlib.axis_2">
    <g id="ytick_1">
     <g id="line2d_11">
      <path clip-path="url(#pefd6b3e948)" d="M 49.39 367.88177 
L 997.56 367.88177 
" style="fill:none;stroke:#808080;stroke-linecap:square;stroke-width:0.8;"/>
     </g>
     <g id="line2d_12">
      <defs>
       <path d="M 0 0 
L -3.5 0 
" id="mbdfd864f51" style="stroke:#000000;stroke-width:0.8;"/>
      </defs>
      <g>
       <use style="stroke:#000000;stroke-width:0.8;" x="49.39" xlink:href="#mbdfd864f51" y="367.88177"/>
      </g>
     </g>
     <g id="text_6">
      <!-- 0 -->
      <g transform="translate(36.0275 371.680989)scale(0.1 -0.1)">
       <use xlink:href="#DejaVuSans-30"/>
      </g>
     </g>
    </g>
    <g id="ytick_2">
     <g id="line2d_13">
      <path clip-path="url(#pefd6b3e948)" d="M 49.39 325.027176 
L 997.56 325.027176 
" style="fill:none;stroke:#808080;stroke-linecap:square;stroke-width:0.8;"/>
     </g>
     <g id="line2d_14">
      <g>
       <use style="stroke:#000000;stroke-width:0.8;" x="49.39" xlink:href="#mbdfd864f51" y="325.027176"/>
      </g>
     </g>
     <g id="text_7">
      <!-- 2500 -->
      <g transform="translate(16.94 328.826394)scale(0.1 -0.1)">
       <use xlink:href="#DejaVuSans-32"/>
       <use x="63.623047" xlink:href="#DejaVuSans-35"/>
       <use x="127.246094" xlink:href="#DejaVuSans-30"/>
       <use x="190.869141" xlink:href="#DejaVuSans-30"/>
      </g>
     </g>
    </g>
    <g id="ytick_3">
     <g id="line2d_15">
      <path clip-path="url(#pefd6b3e948)" d="M 49.39 282.172582 
L 997.56 282.172582 
" style="fill:none;stroke:#808080;stroke-linecap:square;stroke-width:0.8;"/>
     </g>
     <g id="line2d_16">
      <g>
       <use style="stroke:#000000;stroke-width:0.8;" x="49.39" xlink:href="#mbdfd864f51" y="282.172582"/>
      </g>
     </g>
     <g id="text_8">
      <!-- 5000 -->
      <g transform="translate(16.94 285.9718)scale(0.1 -0.1)">
       <use xlink:href="#DejaVuSans-35"/>
       <use x="63.623047" xlink:href="#DejaVuSans-30"/>
       <use x="127.246094" xlink:href="#DejaVuSans-30"/>
       <use x="190.869141" xlink:href="#DejaVuSans-30"/>
      </g>
     </g>
    </g>
    <g id="ytick_4">
     <g id="line2d_17">
      <path clip-path="url(#pefd6b3e948)" d="M 49.39 239.317988 
L 997.56 239.317988 
" style="fill:none;stroke:#808080;stroke-linecap:square;stroke-width:0.8;"/>
     </g>
     <g id="line2d_18">
      <g>
       <use style="stroke:#000000;stroke-width:0.8;" x="49.39" xlink:href="#mbdfd864f51" y="239.317988"/>
      </g>
     </g>
     <g id="text_9">
      <!-- 7500 -->
      <defs>
       <path d="M 8.203125 72.90625 
L 55.078125 72.90625 
L 55.078125 68.703125 
L 28.609375 0 
L 18.3125 0 
L 43.21875 64.59375 
L 8.203125 64.59375 
z
" id="DejaVuSans-37"/>
      </defs>
      <g transform="translate(16.94 243.117206)scale(0.1 -0.1)">
       <use xlink:href="#DejaVuSans-37"/>
       <use x="63.623047" xlink:href="#DejaVuSans-35"/>
       <use x="127.246094" xlink:href="#DejaVuSans-30"/>
       <use x="190.869141" xlink:href="#DejaVuSans-30"/>
      </g>
     </g>
    </g>
    <g id="ytick_5">
     <g id="line2d_19">
      <path clip-path="url(#pefd6b3e948)" d="M 49.39 196.463393 
L 997.56 196.463393 
" style="fill:none;stroke:#808080;stroke-linecap:square;stroke-width:0.8;"/>
     </g>
     <g id="line2d_20">
      <g>
       <use style="stroke:#000000;stroke-width:0.8;" x="49.39" xlink:href="#mbdfd864f51" y="196.463393"/>
      </g>
     </g>
     <g id="text_10">
      <!-- 10000 -->
      <g transform="translate(10.5775 200.262612)scale(0.1 -0.1)">
       <use xlink:href="#DejaVuSans-31"/>
       <use x="63.623047" xlink:href="#DejaVuSans-30"/>
       <use x="127.246094" xlink:href="#DejaVuSans-30"/>
       <use x="190.869141" xlink:href="#DejaVuSans-30"/>
       <use x="254.492188" xlink:href="#DejaVuSans-30"/>
      </g>
     </g>
    </g>
    <g id="ytick_6">
     <g id="line2d_21">
      <path clip-path="url(#pefd6b3e948)" d="M 49.39 153.608799 
L 997.56 153.608799 
" style="fill:none;stroke:#808080;stroke-linecap:square;stroke-width:0.8;"/>
     </g>
     <g id="line2d_22">
      <g>
       <use style="stroke:#000000;stroke-width:0.8;" x="49.39" xlink:href="#mbdfd864f51" y="153.608799"/>
      </g>
     </g>
     <g id="text_11">
      <!-- 12500 -->
      <g transform="translate(10.5775 157.408018)scale(0.1 -0.1)">
       <use xlink:href="#DejaVuSans-31"/>
       <use x="63.623047" xlink:href="#DejaVuSans-32"/>
       <use x="127.246094" xlink:href="#DejaVuSans-35"/>
       <use x="190.869141" xlink:href="#DejaVuSans-30"/>
       <use x="254.492188" xlink:href="#DejaVuSans-30"/>
      </g>
     </g>
    </g>
    <g id="ytick_7">
     <g id="line2d_23">
      <path clip-path="url(#pefd6b3e948)" d="M 49.39 110.754205 
L 997.56 110.754205 
" style="fill:none;stroke:#808080;stroke-linecap:square;stroke-width:0.8;"/>
     </g>
     <g id="line2d_24">
      <g>
       <use style="stroke:#000000;stroke-width:0.8;" x="49.39" xlink:href="#mbdfd864f51" y="110.754205"/>
      </g>
     </g>
     <g id="text_12">
      <!-- 15000 -->
      <g transform="translate(10.5775 114.553424)scale(0.1 -0.1)">
       <use xlink:href="#DejaVuSans-31"/>
       <use x="63.623047" xlink:href="#DejaVuSans-35"/>
       <use x="127.246094" xlink:href="#DejaVuSans-30"/>
       <use x="190.869141" xlink:href="#DejaVuSans-30"/>
       <use x="254.492188" xlink:href="#DejaVuSans-30"/>
      </g>
     </g>
    </g>
    <g id="ytick_8">
     <g id="line2d_25">
      <path clip-path="url(#pefd6b3e948)" d="M 49.39 67.899611 
L 997.56 67.899611 
" style="fill:none;stroke:#808080;stroke-linecap:square;stroke-width:0.8;"/>
     </g>
     <g id="line2d_26">
      <g>
       <use style="stroke:#000000;stroke-width:0.8;" x="49.39" xlink:href="#mbdfd864f51" y="67.899611"/>
      </g>
     </g>
     <g id="text_13">
      <!-- 17500 -->
      <g transform="translate(10.5775 71.69883)scale(0.1 -0.1)">
       <use xlink:href="#DejaVuSans-31"/>
       <use x="63.623047" xlink:href="#DejaVuSans-37"/>
       <use x="127.246094" xlink:href="#DejaVuSans-35"/>
       <use x="190.869141" xlink:href="#DejaVuSans-30"/>
       <use x="254.492188" xlink:href="#DejaVuSans-30"/>
      </g>
     </g>
    </g>
    <g id="ytick_9">
     <g id="line2d_27">
      <path clip-path="url(#pefd6b3e948)" d="M 49.39 25.045017 
L 997.56 25.045017 
" style="fill:none;stroke:#808080;stroke-linecap:square;stroke-width:0.8;"/>
     </g>
     <g id="line2d_28">
      <g>
       <use style="stroke:#000000;stroke-width:0.8;" x="49.39" xlink:href="#mbdfd864f51" y="25.045017"/>
      </g>
     </g>
     <g id="text_14">
      <!-- 20000 -->
      <g transform="translate(10.5775 28.844236)scale(0.1 -0.1)">
       <use xlink:href="#DejaVuSans-32"/>
       <use x="63.623047" xlink:href="#DejaVuSans-30"/>
       <use x="127.246094" xlink:href="#DejaVuSans-30"/>
       <use x="190.869141" xlink:href="#DejaVuSans-30"/>
       <use x="254.492188" xlink:href="#DejaVuSans-30"/>
      </g>
     </g>
    </g>
   </g>
   <g id="line2d_29">
    <path clip-path="url(#pefd6b3e948)" d="M 47.917662 367.672811 
L 977.5651 367.672811 
L 977.5651 367.672811 
" style="fill:none;stroke:#0000ff;stroke-linecap:square;"/>
   </g>
   <g id="line2d_30">
    <path clip-path="url(#pefd6b3e948)" d="M 47.931678 73.522134 
L 67.514242 68.808128 
L 67.564654 74.002105 
L 68.239673 72.202212 
L 69.656173 71.705099 
L 69.705455 73.659269 
L 69.749085 70.710872 
L 69.79181 71.276553 
L 86.911888 72.373631 
L 86.961395 70.968 
L 87.257988 74.996332 
L 88.270743 70.882291 
L 88.314373 72.716467 
L 104.786785 72.322205 
L 104.833353 72.716467 
L 104.879922 72.339347 
L 106.247141 69.562369 
L 106.295518 72.905028 
L 106.380743 72.716467 
L 122.8362 71.99651 
L 122.890229 73.179297 
L 122.916 71.482255 
L 122.943353 71.310837 
L 122.967994 72.767893 
L 122.993539 72.562191 
L 145.024347 70.608021 
L 145.109799 71.99651 
L 145.133309 71.910801 
L 145.15908 71.499397 
L 160.897697 72.819318 
L 161.005754 70.385178 
L 160.950821 73.076446 
L 161.029491 71.070851 
L 182.195388 71.567964 
L 182.224776 70.728014 
L 182.249643 73.196439 
L 182.352953 72.545049 
L 199.334681 73.590701 
L 199.415159 69.09954 
L 199.443643 71.876517 
L 199.601886 75.064899 
L 199.629465 73.145013 
L 218.132134 71.945085 
L 220.495831 68.413866 
L 220.567945 74.97919 
L 220.619035 71.379404 
L 237.042391 70.848007 
L 237.09642 73.367857 
L 237.149545 73.025021 
L 237.175089 69.66522 
L 237.202669 70.522312 
L 259.166111 72.287921 
L 259.214488 69.853781 
L 259.270325 74.053531 
L 259.381321 70.882291 
L 259.469485 73.693552 
L 259.511081 71.105135 
L 274.642045 73.093588 
L 274.689517 73.607843 
L 274.794636 70.77944 
L 274.880991 71.550822 
L 295.63071 70.556596 
L 295.683834 73.282148 
L 295.730403 71.910801 
L 295.772903 71.413688 
L 296.661324 72.030794 
L 297.373417 70.145192 
L 313.715165 72.133645 
L 313.762638 71.173702 
L 313.804234 72.939311 
L 314.088845 70.710872 
L 314.632974 71.773666 
L 314.683386 70.676589 
L 332.139165 72.236496 
L 332.188446 73.384999 
L 332.367713 73.179297 
L 334.606172 72.682184 
L 334.662236 71.362262 
L 334.883098 71.036567 
L 351.152733 72.785035 
L 351.204953 72.510765 
L 351.2522 73.316432 
L 351.294925 72.202212 
L 352.264954 71.139418 
L 352.312427 70.213759 
L 370.378798 72.527907 
L 370.424236 72.767893 
L 370.754286 71.705099 
L 371.641802 71.499397 
L 371.691988 70.830865 
L 371.903355 72.785035 
L 388.594143 74.002105 
L 388.644328 73.573559 
L 388.684115 70.916574 
L 388.727745 72.630758 
L 388.775218 73.779261 
L 389.20383 70.196617 
L 389.250173 73.899254 
L 408.043783 71.15656 
L 408.202252 71.482255 
L 408.375641 71.34512 
L 408.426052 72.665042 
L 408.465839 72.562191 
L 408.509469 71.310837 
L 426.537861 71.876517 
L 426.590081 72.390773 
L 426.632807 71.516539 
L 427.35236 71.687957 
L 427.401641 72.493624 
L 427.440524 72.305063 
L 448.054832 71.259411 
L 448.106826 70.676589 
L 448.400932 70.950858 
L 448.451117 71.15656 
L 449.564244 72.562191 
L 449.607873 74.60207 
L 464.861137 73.230723 
L 465.046055 68.585285 
L 465.090589 70.213759 
L 465.155016 73.522134 
L 465.59787 76.076268 
L 465.684 70.333752 
L 482.987187 68.122455 
L 483.125763 75.082041 
L 483.168262 73.436425 
L 502.324249 69.013831 
L 502.772754 69.648079 
L 502.862727 74.636353 
L 502.906356 73.350715 
L 502.950891 71.705099 
L 503.863048 71.207986 
L 503.902835 72.27078 
L 522.077489 72.27078 
L 522.098286 72.716467 
L 522.117276 70.50517 
L 524.91049 71.516539 
L 526.294889 71.80795 
L 527.681097 72.390773 
L 543.044226 72.665042 
L 543.070902 73.247864 
L 543.21219 70.608021 
L 543.232083 73.967822 
L 543.445485 73.470708 
L 559.298715 71.80795 
L 559.357491 70.333752 
L 559.395469 73.710694 
L 559.415363 70.933716 
L 578.085769 71.465113 
L 578.354104 71.105135 
L 578.391178 69.785213 
L 578.704047 74.104956 
L 579.785977 72.750751 
L 579.800218 73.247864 
L 597.417179 71.756525 
L 597.480702 70.985142 
L 597.462617 72.613616 
L 597.500596 72.013652 
L 597.565927 72.356489 
L 597.612496 70.830865 
L 618.156499 71.293695 
L 618.217988 72.973595 
L 618.30909 72.83646 
L 618.442919 71.362262 
L 618.468463 72.065078 
L 637.260265 71.945085 
L 637.280158 72.83646 
L 637.319041 71.413688 
L 637.555049 71.225128 
L 637.57969 71.396546 
L 654.115851 72.082219 
L 654.169879 72.613616 
L 654.252392 70.556596 
L 654.346207 72.339347 
L 654.382151 71.105135 
L 654.445674 71.962227 
L 675.201271 71.773666 
L 675.25236 73.076446 
L 675.295086 71.053709 
L 676.461336 70.556596 
L 677.26928 71.739383 
L 694.430953 72.099361 
L 694.482269 73.333574 
L 694.528611 72.956453 
L 694.658596 71.396546 
L 694.795138 72.339347 
L 694.826334 73.744978 
L 711.390075 71.516539 
L 711.428053 70.848007 
L 711.452694 73.145013 
L 711.469648 68.602426 
L 711.953194 74.499219 
L 730.734596 71.773666 
L 730.764888 71.979368 
L 730.789529 71.533681 
L 730.816204 71.482255 
L 730.844688 71.550822 
L 730.86639 75.099183 
L 730.892839 72.750751 
L 750.10941 70.248043 
L 750.190114 74.344942 
L 750.242334 72.493624 
L 750.269687 71.396546 
L 750.292519 72.167929 
L 767.891395 71.653674 
L 767.999678 71.636532 
L 768.027032 72.493624 
L 787.084229 74.550644 
L 787.229361 69.785213 
L 787.25694 74.276375 
L 806.063887 72.905028 
L 806.171945 72.939311 
L 806.198394 69.716646 
L 806.247901 72.305063 
L 825.498381 71.190844 
L 825.5289 72.45934 
L 825.578181 71.61939 
L 825.655042 71.910801 
L 825.678552 73.145013 
L 843.485178 72.545049 
L 843.515696 72.682184 
L 843.541241 71.705099 
L 843.568821 73.265006 
L 843.618102 72.596475 
L 862.739727 71.465113 
L 862.768211 71.739383 
L 862.79579 73.624985 
L 862.872425 71.567964 
L 881.689997 71.61939 
L 881.76392 73.504992 
L 881.830155 73.247864 
L 881.904078 70.230901 
L 900.675985 72.425056 
L 900.821117 71.036567 
L 900.847566 73.402141 
L 900.925331 71.636532 
L 900.949972 71.293695 
L 900.975743 71.825092 
L 919.906798 73.162155 
L 919.954271 70.470887 
L 919.995866 73.470708 
L 920.036783 71.190844 
L 920.080413 71.379404 
L 921.228579 73.162155 
L 938.335545 71.413688 
L 938.380079 72.493624 
L 938.86272 73.367857 
L 940.38253 72.18507 
L 940.473633 70.899433 
L 957.801461 71.447971 
L 957.904771 72.6479 
L 958.003334 70.625163 
L 958.138066 70.50517 
L 976.614964 71.859376 
L 976.684139 71.722241 
L 976.817967 70.796582 
L 977.072965 70.745156 
L 977.498638 71.722241 
L 977.585898 73.025021 
L 997.363779 72.236496 
L 997.474775 71.139418 
L 997.5175 71.670815 
L 997.56 73.453566 
L 997.56 73.453566 
" style="fill:none;stroke:#ff0000;stroke-linecap:square;"/>
   </g>
   <g id="patch_3">
    <path d="M 49.39 397.64 
L 49.39 13.32 
" style="fill:none;stroke:#000000;stroke-linecap:square;stroke-linejoin:miter;stroke-width:0.8;"/>
   </g>
   <g id="patch_4">
    <path d="M 997.56 397.64 
L 997.56 13.32 
" style="fill:none;stroke:#000000;stroke-linecap:square;stroke-linejoin:miter;stroke-width:0.8;"/>
   </g>
   <g id="patch_5">
    <path d="M 49.39 397.64 
L 997.56 397.64 
" style="fill:none;stroke:#000000;stroke-linecap:square;stroke-linejoin:miter;stroke-width:0.8;"/>
   </g>
   <g id="patch_6">
    <path d="M 49.39 13.32 
L 997.56 13.32 
" style="fill:none;stroke:#000000;stroke-linecap:square;stroke-linejoin:miter;stroke-width:0.8;"/>
   </g>
   <g id="legend_1">
    <g id="patch_7">
     <path d="M 56.39 51.2325 
L 234.657188 51.2325 
Q 236.657188 51.2325 236.657188 49.2325 
L 236.657188 20.32 
Q 236.657188 18.32 234.657188 18.32 
L 56.39 18.32 
Q 54.39 18.32 54.39 20.32 
L 54.39 49.2325 
Q 54.39 51.2325 56.39 51.2325 
z
" style="fill:#ffffff;opacity:0.8;stroke:#cccccc;stroke-linejoin:miter;"/>
    </g>
    <g id="line2d_31">
     <path d="M 58.39 26.418437 
L 78.39 26.418437 
" style="fill:none;stroke:#ff0000;stroke-linecap:square;"/>
    </g>
    <g id="line2d_32"/>
    <g id="text_15">
     <!-- /sensor_data/accelZ -->
     <defs>
      <path d="M 25.390625 72.90625 
L 33.6875 72.90625 
L 8.296875 -9.28125 
L 0 -9.28125 
z
" id="DejaVuSans-2f"/>
      <path d="M 44.28125 53.078125 
L 44.28125 44.578125 
Q 40.484375 46.53125 36.375 47.5 
Q 32.28125 48.484375 27.875 48.484375 
Q 21.1875 48.484375 17.84375 46.4375 
Q 14.5 44.390625 14.5 40.28125 
Q 14.5 37.15625 16.890625 35.375 
Q 19.28125 33.59375 26.515625 31.984375 
L 29.59375 31.296875 
Q 39.15625 29.25 43.1875 25.515625 
Q 47.21875 21.78125 47.21875 15.09375 
Q 47.21875 7.46875 41.1875 3.015625 
Q 35.15625 -1.421875 24.609375 -1.421875 
Q 20.21875 -1.421875 15.453125 -0.5625 
Q 10.6875 0.296875 5.421875 2 
L 5.421875 11.28125 
Q 10.40625 8.6875 15.234375 7.390625 
Q 20.0625 6.109375 24.8125 6.109375 
Q 31.15625 6.109375 34.5625 8.28125 
Q 37.984375 10.453125 37.984375 14.40625 
Q 37.984375 18.0625 35.515625 20.015625 
Q 33.0625 21.96875 24.703125 23.78125 
L 21.578125 24.515625 
Q 13.234375 26.265625 9.515625 29.90625 
Q 5.8125 33.546875 5.8125 39.890625 
Q 5.8125 47.609375 11.28125 51.796875 
Q 16.75 56 26.8125 56 
Q 31.78125 56 36.171875 55.265625 
Q 40.578125 54.546875 44.28125 53.078125 
z
" id="DejaVuSans-73"/>
      <path d="M 56.203125 29.59375 
L 56.203125 25.203125 
L 14.890625 25.203125 
Q 15.484375 15.921875 20.484375 11.0625 
Q 25.484375 6.203125 34.421875 6.203125 
Q 39.59375 6.203125 44.453125 7.46875 
Q 49.3125 8.734375 54.109375 11.28125 
L 54.109375 2.78125 
Q 49.265625 0.734375 44.1875 -0.34375 
Q 39.109375 -1.421875 33.890625 -1.421875 
Q 20.796875 -1.421875 13.15625 6.1875 
Q 5.515625 13.8125 5.515625 26.8125 
Q 5.515625 40.234375 12.765625 48.109375 
Q 20.015625 56 32.328125 56 
Q 43.359375 56 49.78125 48.890625 
Q 56.203125 41.796875 56.203125 29.59375 
z
M 47.21875 32.234375 
Q 47.125 39.59375 43.09375 43.984375 
Q 39.0625 48.390625 32.421875 48.390625 
Q 24.90625 48.390625 20.390625 44.140625 
Q 15.875 39.890625 15.1875 32.171875 
z
" id="DejaVuSans-65"/>
      <path d="M 54.890625 33.015625 
L 54.890625 0 
L 45.90625 0 
L 45.90625 32.71875 
Q 45.90625 40.484375 42.875 44.328125 
Q 39.84375 48.1875 33.796875 48.1875 
Q 26.515625 48.1875 22.3125 43.546875 
Q 18.109375 38.921875 18.109375 30.90625 
L 18.109375 0 
L 9.078125 0 
L 9.078125 54.6875 
L 18.109375 54.6875 
L 18.109375 46.1875 
Q 21.34375 51.125 25.703125 53.5625 
Q 30.078125 56 35.796875 56 
Q 45.21875 56 50.046875 50.171875 
Q 54.890625 44.34375 54.890625 33.015625 
z
" id="DejaVuSans-6e"/>
      <path d="M 30.609375 48.390625 
Q 23.390625 48.390625 19.1875 42.75 
Q 14.984375 37.109375 14.984375 27.296875 
Q 14.984375 17.484375 19.15625 11.84375 
Q 23.34375 6.203125 30.609375 6.203125 
Q 37.796875 6.203125 41.984375 11.859375 
Q 46.1875 17.53125 46.1875 27.296875 
Q 46.1875 37.015625 41.984375 42.703125 
Q 37.796875 48.390625 30.609375 48.390625 
z
M 30.609375 56 
Q 42.328125 56 49.015625 48.375 
Q 55.71875 40.765625 55.71875 27.296875 
Q 55.71875 13.875 49.015625 6.21875 
Q 42.328125 -1.421875 30.609375 -1.421875 
Q 18.84375 -1.421875 12.171875 6.21875 
Q 5.515625 13.875 5.515625 27.296875 
Q 5.515625 40.765625 12.171875 48.375 
Q 18.84375 56 30.609375 56 
z
" id="DejaVuSans-6f"/>
      <path d="M 41.109375 46.296875 
Q 39.59375 47.171875 37.8125 47.578125 
Q 36.03125 48 33.890625 48 
Q 26.265625 48 22.1875 43.046875 
Q 18.109375 38.09375 18.109375 28.8125 
L 18.109375 0 
L 9.078125 0 
L 9.078125 54.6875 
L 18.109375 54.6875 
L 18.109375 46.1875 
Q 20.953125 51.171875 25.484375 53.578125 
Q 30.03125 56 36.53125 56 
Q 37.453125 56 38.578125 55.875 
Q 39.703125 55.765625 41.0625 55.515625 
z
" id="DejaVuSans-72"/>
      <path d="M 50.984375 -16.609375 
L 50.984375 -23.578125 
L -0.984375 -23.578125 
L -0.984375 -16.609375 
z
" id="DejaVuSans-5f"/>
      <path d="M 45.40625 46.390625 
L 45.40625 75.984375 
L 54.390625 75.984375 
L 54.390625 0 
L 45.40625 0 
L 45.40625 8.203125 
Q 42.578125 3.328125 38.25 0.953125 
Q 33.9375 -1.421875 27.875 -1.421875 
Q 17.96875 -1.421875 11.734375 6.484375 
Q 5.515625 14.40625 5.515625 27.296875 
Q 5.515625 40.1875 11.734375 48.09375 
Q 17.96875 56 27.875 56 
Q 33.9375 56 38.25 53.625 
Q 42.578125 51.265625 45.40625 46.390625 
z
M 14.796875 27.296875 
Q 14.796875 17.390625 18.875 11.75 
Q 22.953125 6.109375 30.078125 6.109375 
Q 37.203125 6.109375 41.296875 11.75 
Q 45.40625 17.390625 45.40625 27.296875 
Q 45.40625 37.203125 41.296875 42.84375 
Q 37.203125 48.484375 30.078125 48.484375 
Q 22.953125 48.484375 18.875 42.84375 
Q 14.796875 37.203125 14.796875 27.296875 
z
" id="DejaVuSans-64"/>
      <path d="M 34.28125 27.484375 
Q 23.390625 27.484375 19.1875 25 
Q 14.984375 22.515625 14.984375 16.5 
Q 14.984375 11.71875 18.140625 8.90625 
Q 21.296875 6.109375 26.703125 6.109375 
Q 34.1875 6.109375 38.703125 11.40625 
Q 43.21875 16.703125 43.21875 25.484375 
L 43.21875 27.484375 
z
M 52.203125 31.203125 
L 52.203125 0 
L 43.21875 0 
L 43.21875 8.296875 
Q 40.140625 3.328125 35.546875 0.953125 
Q 30.953125 -1.421875 24.3125 -1.421875 
Q 15.921875 -1.421875 10.953125 3.296875 
Q 6 8.015625 6 15.921875 
Q 6 25.140625 12.171875 29.828125 
Q 18.359375 34.515625 30.609375 34.515625 
L 43.21875 34.515625 
L 43.21875 35.40625 
Q 43.21875 41.609375 39.140625 45 
Q 35.0625 48.390625 27.6875 48.390625 
Q 23 48.390625 18.546875 47.265625 
Q 14.109375 46.140625 10.015625 43.890625 
L 10.015625 52.203125 
Q 14.9375 54.109375 19.578125 55.046875 
Q 24.21875 56 28.609375 56 
Q 40.484375 56 46.34375 49.84375 
Q 52.203125 43.703125 52.203125 31.203125 
z
" id="DejaVuSans-61"/>
      <path d="M 18.3125 70.21875 
L 18.3125 54.6875 
L 36.8125 54.6875 
L 36.8125 47.703125 
L 18.3125 47.703125 
L 18.3125 18.015625 
Q 18.3125 11.328125 20.140625 9.421875 
Q 21.96875 7.515625 27.59375 7.515625 
L 36.8125 7.515625 
L 36.8125 0 
L 27.59375 0 
Q 17.1875 0 13.234375 3.875 
Q 9.28125 7.765625 9.28125 18.015625 
L 9.28125 47.703125 
L 2.6875 47.703125 
L 2.6875 54.6875 
L 9.28125 54.6875 
L 9.28125 70.21875 
z
" id="DejaVuSans-74"/>
      <path d="M 48.78125 52.59375 
L 48.78125 44.1875 
Q 44.96875 46.296875 41.140625 47.34375 
Q 37.3125 48.390625 33.40625 48.390625 
Q 24.65625 48.390625 19.8125 42.84375 
Q 14.984375 37.3125 14.984375 27.296875 
Q 14.984375 17.28125 19.8125 11.734375 
Q 24.65625 6.203125 33.40625 6.203125 
Q 37.3125 6.203125 41.140625 7.25 
Q 44.96875 8.296875 48.78125 10.40625 
L 48.78125 2.09375 
Q 45.015625 0.34375 40.984375 -0.53125 
Q 36.96875 -1.421875 32.421875 -1.421875 
Q 20.0625 -1.421875 12.78125 6.34375 
Q 5.515625 14.109375 5.515625 27.296875 
Q 5.515625 40.671875 12.859375 48.328125 
Q 20.21875 56 33.015625 56 
Q 37.15625 56 41.109375 55.140625 
Q 45.0625 54.296875 48.78125 52.59375 
z
" id="DejaVuSans-63"/>
      <path d="M 9.421875 75.984375 
L 18.40625 75.984375 
L 18.40625 0 
L 9.421875 0 
z
" id="DejaVuSans-6c"/>
      <path d="M 5.609375 72.90625 
L 62.890625 72.90625 
L 62.890625 65.375 
L 16.796875 8.296875 
L 64.015625 8.296875 
L 64.015625 0 
L 4.5 0 
L 4.5 7.515625 
L 50.59375 64.59375 
L 5.609375 64.59375 
z
" id="DejaVuSans-5a"/>
     </defs>
     <g transform="translate(86.39 29.918437)scale(0.1 -0.1)">
      <use xlink:href="#DejaVuSans-2f"/>
      <use x="33.691406" xlink:href="#DejaVuSans-73"/>
      <use x="85.791016" xlink:href="#DejaVuSans-65"/>
      <use x="147.314453" xlink:href="#DejaVuSans-6e"/>
      <use x="210.693359" xlink:href="#DejaVuSans-73"/>
      <use x="262.792969" xlink:href="#DejaVuSans-6f"/>
      <use x="323.974609" xlink:href="#DejaVuSans-72"/>
      <use x="365.087891" xlink:href="#DejaVuSans-5f"/>
      <use x="415.087891" xlink:href="#DejaVuSans-64"/>
      <use x="478.564453" xlink:href="#DejaVuSans-61"/>
      <use x="539.84375" xlink:href="#DejaVuSans-74"/>
      <use x="579.052734" xlink:href="#DejaVuSans-61"/>
      <use x="640.332031" xlink:href="#DejaVuSans-2f"/>
      <use x="674.023438" xlink:href="#DejaVuSans-61"/>
      <use x="735.302734" xlink:href="#DejaVuSans-63"/>
      <use x="790.283203" xlink:href="#DejaVuSans-63"/>
      <use x="845.263672" xlink:href="#DejaVuSans-65"/>
      <use x="906.787109" xlink:href="#DejaVuSans-6c"/>
      <use x="934.570312" xlink:href="#DejaVuSans-5a"/>
     </g>
    </g>
    <g id="line2d_33">
     <path d="M 58.39 41.374687 
L 78.39 41.374687 
" style="fill:none;stroke:#0000ff;stroke-linecap:square;"/>
    </g>
    <g id="line2d_34"/>
    <g id="text_16">
     <!-- /sensor_data/battery_voltage -->
     <defs>
      <path d="M 48.6875 27.296875 
Q 48.6875 37.203125 44.609375 42.84375 
Q 40.53125 48.484375 33.40625 48.484375 
Q 26.265625 48.484375 22.1875 42.84375 
Q 18.109375 37.203125 18.109375 27.296875 
Q 18.109375 17.390625 22.1875 11.75 
Q 26.265625 6.109375 33.40625 6.109375 
Q 40.53125 6.109375 44.609375 11.75 
Q 48.6875 17.390625 48.6875 27.296875 
z
M 18.109375 46.390625 
Q 20.953125 51.265625 25.265625 53.625 
Q 29.59375 56 35.59375 56 
Q 45.5625 56 51.78125 48.09375 
Q 58.015625 40.1875 58.015625 27.296875 
Q 58.015625 14.40625 51.78125 6.484375 
Q 45.5625 -1.421875 35.59375 -1.421875 
Q 29.59375 -1.421875 25.265625 0.953125 
Q 20.953125 3.328125 18.109375 8.203125 
L 18.109375 0 
L 9.078125 0 
L 9.078125 75.984375 
L 18.109375 75.984375 
z
" id="DejaVuSans-62"/>
      <path d="M 32.171875 -5.078125 
Q 28.375 -14.84375 24.75 -17.8125 
Q 21.140625 -20.796875 15.09375 -20.796875 
L 7.90625 -20.796875 
L 7.90625 -13.28125 
L 13.1875 -13.28125 
Q 16.890625 -13.28125 18.9375 -11.515625 
Q 21 -9.765625 23.484375 -3.21875 
L 25.09375 0.875 
L 2.984375 54.6875 
L 12.5 54.6875 
L 29.59375 11.921875 
L 46.6875 54.6875 
L 56.203125 54.6875 
z
" id="DejaVuSans-79"/>
      <path d="M 2.984375 54.6875 
L 12.5 54.6875 
L 29.59375 8.796875 
L 46.6875 54.6875 
L 56.203125 54.6875 
L 35.6875 0 
L 23.484375 0 
z
" id="DejaVuSans-76"/>
      <path d="M 45.40625 27.984375 
Q 45.40625 37.75 41.375 43.109375 
Q 37.359375 48.484375 30.078125 48.484375 
Q 22.859375 48.484375 18.828125 43.109375 
Q 14.796875 37.75 14.796875 27.984375 
Q 14.796875 18.265625 18.828125 12.890625 
Q 22.859375 7.515625 30.078125 7.515625 
Q 37.359375 7.515625 41.375 12.890625 
Q 45.40625 18.265625 45.40625 27.984375 
z
M 54.390625 6.78125 
Q 54.390625 -7.171875 48.1875 -13.984375 
Q 42 -20.796875 29.203125 -20.796875 
Q 24.46875 -20.796875 20.265625 -20.09375 
Q 16.0625 -19.390625 12.109375 -17.921875 
L 12.109375 -9.1875 
Q 16.0625 -11.328125 19.921875 -12.34375 
Q 23.78125 -13.375 27.78125 -13.375 
Q 36.625 -13.375 41.015625 -8.765625 
Q 45.40625 -4.15625 45.40625 5.171875 
L 45.40625 9.625 
Q 42.625 4.78125 38.28125 2.390625 
Q 33.9375 0 27.875 0 
Q 17.828125 0 11.671875 7.65625 
Q 5.515625 15.328125 5.515625 27.984375 
Q 5.515625 40.671875 11.671875 48.328125 
Q 17.828125 56 27.875 56 
Q 33.9375 56 38.28125 53.609375 
Q 42.625 51.21875 45.40625 46.390625 
L 45.40625 54.6875 
L 54.390625 54.6875 
z
" id="DejaVuSans-67"/>
     </defs>
     <g transform="translate(86.39 44.874687)scale(0.1 -0.1)">
      <use xlink:href="#DejaVuSans-2f"/>
      <use x="33.691406" xlink:href="#DejaVuSans-73"/>
      <use x="85.791016" xlink:href="#DejaVuSans-65"/>
      <use x="147.314453" xlink:href="#DejaVuSans-6e"/>
      <use x="210.693359" xlink:href="#DejaVuSans-73"/>
      <use x="262.792969" xlink:href="#DejaVuSans-6f"/>
      <use x="323.974609" xlink:href="#DejaVuSans-72"/>
      <use x="365.087891" xlink:href="#DejaVuSans-5f"/>
      <use x="415.087891" xlink:href="#DejaVuSans-64"/>
      <use x="478.564453" xlink:href="#DejaVuSans-61"/>
      <use x="539.84375" xlink:href="#DejaVuSans-74"/>
      <use x="579.052734" xlink:href="#DejaVuSans-61"/>
      <use x="640.332031" xlink:href="#DejaVuSans-2f"/>
      <use x="674.023438" xlink:href="#DejaVuSans-62"/>
      <use x="737.5" xlink:href="#DejaVuSans-61"/>
      <use x="798.779297" xlink:href="#DejaVuSans-74"/>
      <use x="837.988281" xlink:href="#DejaVuSans-74"/>
      <use x="877.197266" xlink:href="#DejaVuSans-65"/>
      <use x="938.720703" xlink:href="#DejaVuSans-72"/>
      <use x="979.833984" xlink:href="#DejaVuSans-79"/>
      <use x="1039.013672" xlink:href="#DejaVuSans-5f"/>
      <use x="1089.013672" xlink:href="#DejaVuSans-76"/>
      <use x="1148.193359" xlink:href="#DejaVuSans-6f"/>
      <use x="1209.375" xlink:href="#DejaVuSans-6c"/>
      <use x="1237.158203" xlink:href="#DejaVuSans-74"/>
      <use x="1276.367188" xlink:href="#DejaVuSans-61"/>
      <use x="1337.646484" xlink:href="#DejaVuSans-67"/>
      <use x="1401.123047" xlink:href="#DejaVuSans-65"/>
     </g>
    </g>
   </g>
  </g>
 </g>
 <defs>
  <clipPath id="pefd6b3e948">
   <rect height="384.32" width="948.17" x="49.39" y="13.32"/>
  </clipPath>
 </defs>
</svg>
